<mxfile host="app.diagrams.net" modified="2024-04-25T08:08:22.684Z" agent="Mozilla/5.0 (Windows NT 10.0; Win64; x64) AppleWebKit/537.36 (KHTML, like Gecko) Chrome/124.0.0.0 Safari/537.36" etag="9ufP4E_0T_u2NeIqJlSS" version="24.2.8" type="github">
  <diagram id="C5RBs43oDa-KdzZeNtuy" name="Page-1">
    <mxGraphModel dx="1885" dy="379" grid="1" gridSize="10" guides="1" tooltips="1" connect="1" arrows="1" fold="1" page="1" pageScale="1" pageWidth="827" pageHeight="1169" math="0" shadow="0">
      <root>
        <mxCell id="WIyWlLk6GJQsqaUBKTNV-0" />
        <mxCell id="WIyWlLk6GJQsqaUBKTNV-1" parent="WIyWlLk6GJQsqaUBKTNV-0" />
        <mxCell id="XhOz3EzYkKyM31eJCpg_-15" value="" style="edgeStyle=orthogonalEdgeStyle;rounded=0;orthogonalLoop=1;jettySize=auto;html=1;" edge="1" parent="WIyWlLk6GJQsqaUBKTNV-1" source="XhOz3EzYkKyM31eJCpg_-11" target="XhOz3EzYkKyM31eJCpg_-14">
          <mxGeometry relative="1" as="geometry" />
        </mxCell>
        <mxCell id="XhOz3EzYkKyM31eJCpg_-11" value="Pick task card, attempt_task_card function receives character and task_card" style="rounded=1;whiteSpace=wrap;html=1;fillColor=#26FF26;" vertex="1" parent="WIyWlLk6GJQsqaUBKTNV-1">
          <mxGeometry x="55" y="130" width="150" height="90" as="geometry" />
        </mxCell>
        <mxCell id="XhOz3EzYkKyM31eJCpg_-17" value="" style="edgeStyle=orthogonalEdgeStyle;rounded=0;orthogonalLoop=1;jettySize=auto;html=1;" edge="1" parent="WIyWlLk6GJQsqaUBKTNV-1" source="XhOz3EzYkKyM31eJCpg_-14" target="XhOz3EzYkKyM31eJCpg_-16">
          <mxGeometry relative="1" as="geometry" />
        </mxCell>
        <mxCell id="XhOz3EzYkKyM31eJCpg_-14" value="Roll dice_pool" style="rounded=1;whiteSpace=wrap;html=1;" vertex="1" parent="WIyWlLk6GJQsqaUBKTNV-1">
          <mxGeometry x="70" y="250" width="120" height="60" as="geometry" />
        </mxCell>
        <mxCell id="XhOz3EzYkKyM31eJCpg_-19" value="" style="edgeStyle=orthogonalEdgeStyle;rounded=0;orthogonalLoop=1;jettySize=auto;html=1;entryX=0.5;entryY=0;entryDx=0;entryDy=0;" edge="1" parent="WIyWlLk6GJQsqaUBKTNV-1" source="XhOz3EzYkKyM31eJCpg_-16" target="XhOz3EzYkKyM31eJCpg_-20">
          <mxGeometry relative="1" as="geometry">
            <mxPoint x="130" y="450" as="targetPoint" />
          </mxGeometry>
        </mxCell>
        <mxCell id="XhOz3EzYkKyM31eJCpg_-16" value="Pick task and attempt_task is passed dice_pool and task" style="rounded=1;whiteSpace=wrap;html=1;" vertex="1" parent="WIyWlLk6GJQsqaUBKTNV-1">
          <mxGeometry x="60" y="360" width="140" height="60" as="geometry" />
        </mxCell>
        <mxCell id="XhOz3EzYkKyM31eJCpg_-23" value="" style="edgeStyle=orthogonalEdgeStyle;rounded=0;orthogonalLoop=1;jettySize=auto;html=1;" edge="1" parent="WIyWlLk6GJQsqaUBKTNV-1" source="XhOz3EzYkKyM31eJCpg_-20" target="XhOz3EzYkKyM31eJCpg_-22">
          <mxGeometry relative="1" as="geometry" />
        </mxCell>
        <mxCell id="XhOz3EzYkKyM31eJCpg_-20" value="attempt_task returns dice pool and task to attempt_task_card function" style="whiteSpace=wrap;html=1;rounded=1;" vertex="1" parent="WIyWlLk6GJQsqaUBKTNV-1">
          <mxGeometry x="55" y="460" width="150" height="80" as="geometry" />
        </mxCell>
        <mxCell id="XhOz3EzYkKyM31eJCpg_-30" value="Yes" style="edgeStyle=orthogonalEdgeStyle;rounded=0;orthogonalLoop=1;jettySize=auto;html=1;" edge="1" parent="WIyWlLk6GJQsqaUBKTNV-1" source="XhOz3EzYkKyM31eJCpg_-22" target="XhOz3EzYkKyM31eJCpg_-29">
          <mxGeometry relative="1" as="geometry" />
        </mxCell>
        <mxCell id="XhOz3EzYkKyM31eJCpg_-38" value="No" style="edgeStyle=orthogonalEdgeStyle;rounded=0;orthogonalLoop=1;jettySize=auto;html=1;" edge="1" parent="WIyWlLk6GJQsqaUBKTNV-1" source="XhOz3EzYkKyM31eJCpg_-22" target="XhOz3EzYkKyM31eJCpg_-33">
          <mxGeometry relative="1" as="geometry">
            <mxPoint x="10" y="610" as="targetPoint" />
            <Array as="points">
              <mxPoint x="-10" y="630" />
            </Array>
          </mxGeometry>
        </mxCell>
        <mxCell id="XhOz3EzYkKyM31eJCpg_-22" value="Is the task complete?" style="rhombus;whiteSpace=wrap;html=1;rounded=1;" vertex="1" parent="WIyWlLk6GJQsqaUBKTNV-1">
          <mxGeometry x="90" y="590" width="80" height="80" as="geometry" />
        </mxCell>
        <mxCell id="XhOz3EzYkKyM31eJCpg_-32" value="Yes" style="edgeStyle=orthogonalEdgeStyle;rounded=0;orthogonalLoop=1;jettySize=auto;html=1;" edge="1" parent="WIyWlLk6GJQsqaUBKTNV-1" source="XhOz3EzYkKyM31eJCpg_-29" target="XhOz3EzYkKyM31eJCpg_-31">
          <mxGeometry relative="1" as="geometry" />
        </mxCell>
        <mxCell id="XhOz3EzYkKyM31eJCpg_-34" value="No" style="edgeStyle=orthogonalEdgeStyle;rounded=0;orthogonalLoop=1;jettySize=auto;html=1;" edge="1" parent="WIyWlLk6GJQsqaUBKTNV-1" source="XhOz3EzYkKyM31eJCpg_-29" target="XhOz3EzYkKyM31eJCpg_-33">
          <mxGeometry relative="1" as="geometry">
            <Array as="points">
              <mxPoint x="-50" y="780" />
            </Array>
          </mxGeometry>
        </mxCell>
        <mxCell id="XhOz3EzYkKyM31eJCpg_-29" value="Is the task card complete?" style="rhombus;whiteSpace=wrap;html=1;rounded=1;" vertex="1" parent="WIyWlLk6GJQsqaUBKTNV-1">
          <mxGeometry x="90" y="740" width="80" height="80" as="geometry" />
        </mxCell>
        <mxCell id="XhOz3EzYkKyM31eJCpg_-31" value="Exit task card function with reward" style="whiteSpace=wrap;html=1;rounded=1;fillColor=#FF6666;" vertex="1" parent="WIyWlLk6GJQsqaUBKTNV-1">
          <mxGeometry x="70" y="880" width="120" height="60" as="geometry" />
        </mxCell>
        <mxCell id="XhOz3EzYkKyM31eJCpg_-35" value="No" style="edgeStyle=orthogonalEdgeStyle;rounded=0;orthogonalLoop=1;jettySize=auto;html=1;entryX=0;entryY=0.5;entryDx=0;entryDy=0;" edge="1" parent="WIyWlLk6GJQsqaUBKTNV-1" source="XhOz3EzYkKyM31eJCpg_-33" target="XhOz3EzYkKyM31eJCpg_-14">
          <mxGeometry relative="1" as="geometry">
            <Array as="points">
              <mxPoint x="-30" y="280" />
            </Array>
          </mxGeometry>
        </mxCell>
        <mxCell id="XhOz3EzYkKyM31eJCpg_-37" value="Yes" style="edgeStyle=orthogonalEdgeStyle;rounded=0;orthogonalLoop=1;jettySize=auto;html=1;" edge="1" parent="WIyWlLk6GJQsqaUBKTNV-1" source="XhOz3EzYkKyM31eJCpg_-33" target="XhOz3EzYkKyM31eJCpg_-36">
          <mxGeometry relative="1" as="geometry" />
        </mxCell>
        <mxCell id="XhOz3EzYkKyM31eJCpg_-33" value="Is the dice pool empty?" style="rhombus;whiteSpace=wrap;html=1;rounded=1;" vertex="1" parent="WIyWlLk6GJQsqaUBKTNV-1">
          <mxGeometry x="-70" y="450" width="80" height="80" as="geometry" />
        </mxCell>
        <mxCell id="XhOz3EzYkKyM31eJCpg_-36" value="Exit task card function with penalty" style="whiteSpace=wrap;html=1;rounded=1;fillColor=#FF69AA;" vertex="1" parent="WIyWlLk6GJQsqaUBKTNV-1">
          <mxGeometry x="-250" y="460" width="120" height="60" as="geometry" />
        </mxCell>
      </root>
    </mxGraphModel>
  </diagram>
</mxfile>
